# xmcd CD database file
#
# Track frame offsets:
#	150
#	14695
#	31993
#	50230
#	73042
#	95088
#	116153
#	131259
#	147747
#	165548
#	183273
#	197934
#	216136
#
# Disc length: 3165 seconds
#
# Revision: 2
# Processed by: cddbd v1.4b41PL1 Copyright (c) Steve Scherf et al.
# Submitted via: Feurio! 1.50.2ß - http://www.feurio.com
#
DISCID=cc0c5b0d
DTITLE=Various Artist - JesusHouse
DYEAR=1900
DGENRE=
TTITLE0=Judy Bailey - Jesus in my House
TTITLE1=Judy Bailey - Only free in dreams
TTITLE2=Sarah Brendel - My fathers girl
TTITLE3=Sarah Brendel - Accepted
TTITLE4=DJBOY W4C - Frage Antwort
TTITLE5=DJBOY W4C - Vielleicht
TTITLE6=BAFF - Was hatn die?
TTITLE7=Danny Plett - Here And Now
TTITLE8=on a misson - Time
TTITLE9=on a misson - (I don't wanna be) medium
TTITLE10=WWMT (World Wide Message Tribe) - Frantik
TTITLE11=WWMT (World Wide Message Tribe) - Truth
TTITLE12=ONE ACCORD - Shake It Up!
EXTD=
EXTT0=
EXTT1=
EXTT2=
EXTT3=
EXTT4=
EXTT5=
EXTT6=
EXTT7=
EXTT8=
EXTT9=
EXTT10=
EXTT11=
EXTT12=
PLAYORDER=
